<svg width="17" height="21" viewBox="0 0 17 21" fill="none" xmlns="http://www.w3.org/2000/svg">
<path d="M11.3141 3.19C11.6763 2.75428 11.9525 2.24817 12.1268 1.70074C12.3011 1.1533 12.37 0.575328 12.3297 0C11.2177 0.093687 10.1855 0.639556 9.45542 1.52C9.10581 1.94198 8.84087 2.43288 8.6763 2.96364C8.51173 3.49441 8.45087 4.05424 8.49732 4.61C9.03974 4.61472 9.57593 4.4891 10.0644 4.24286C10.5528 3.99662 10.9805 3.63637 11.3141 3.19ZM13.7285 10.63C13.735 9.86374 13.9284 9.11182 14.2904 8.4452C14.6525 7.77859 15.1714 7.21926 15.798 6.82C15.4026 6.22524 14.8797 5.73483 14.2711 5.38767C13.6624 5.04052 12.9846 4.84615 12.2914 4.82C10.7968 4.66 9.41709 5.73 8.62187 5.73C7.82665 5.73 6.70567 4.84 5.46014 4.86C4.64588 4.888 3.85247 5.13578 3.15729 5.57919C2.46212 6.02259 1.88892 6.64648 1.4936 7.39C-0.192654 10.45 1.06246 15 2.74871 17.47C3.51519 18.68 4.4733 20.05 5.73799 20C7.00268 19.95 7.41466 19.18 8.88056 19.18C10.3465 19.18 10.7968 20 12.0423 19.97C13.2878 19.94 14.1693 18.73 14.9741 17.52C15.5442 16.6415 15.9895 15.6816 16.2963 14.67C15.5369 14.332 14.8891 13.7693 14.4328 13.0513C13.9765 12.3333 13.7316 11.4916 13.7285 10.63Z" fill="white" fill-opacity="0.95"/>
</svg>
