<svg width="19" height="19" viewBox="0 0 19 19" fill="none" xmlns="http://www.w3.org/2000/svg">
<path d="M18.9899 9.67774C18.9899 8.89932 18.9253 8.33128 18.7854 7.7422H9.68921V11.2556H15.0285C14.9209 12.1287 14.3396 13.4437 13.0478 14.3272L13.0297 14.4449L15.9057 16.6221L16.105 16.6415C17.935 14.99 18.9899 12.56 18.9899 9.67774Z" fill="#4285F4"/>
<path d="M9.68923 18.9347C12.305 18.9347 14.501 18.0932 16.105 16.6415L13.0478 14.3272C12.2297 14.8848 11.1317 15.274 9.68923 15.274C7.12724 15.274 4.95278 13.6225 4.17765 11.3398L4.06403 11.3492L1.07347 13.6109L1.03436 13.7171C2.62753 16.8098 5.90001 18.9347 9.68923 18.9347Z" fill="#34A853"/>
<path d="M4.17765 11.3398C3.97312 10.7507 3.85476 10.1195 3.85476 9.46736C3.85476 8.81513 3.97313 8.18399 4.16689 7.59492L4.16147 7.46946L1.13344 5.17148L1.03437 5.21753C0.377746 6.5009 0.000976562 7.94207 0.000976562 9.46736C0.000976562 10.9927 0.377746 12.4338 1.03437 13.7171L4.17765 11.3398Z" fill="#FBBC05"/>
<path d="M9.68923 3.66069C11.5084 3.66069 12.7356 4.4286 13.4353 5.07032L16.1696 2.46152C14.4903 0.936221 12.305 0 9.68923 0C5.90001 0 2.62753 2.12488 1.03436 5.21753L4.16689 7.59492C4.95278 5.31224 7.12724 3.66069 9.68923 3.66069Z" fill="#EB4335"/>
</svg>
