<svg width="23" height="20" viewBox="0 0 23 20" fill="none" xmlns="http://www.w3.org/2000/svg">
<g clip-path="url(#clip0_2_1641)">
<path fill-rule="evenodd" clip-rule="evenodd" d="M6.43481 18.3333L9.35436 19.1072V18.0952L9.59269 17.8571H11.261V19.0476V19.8809H9.47353L7.26896 18.9286L6.43481 18.3333Z" fill="#CDBDB2"/>
<path fill-rule="evenodd" clip-rule="evenodd" d="M15.9678 18.3333L13.1079 19.1072V18.0952L12.8696 17.8571H11.2013V19.0476V19.8809H12.9888L15.1932 18.9286L15.9678 18.3333Z" fill="#CDBDB2"/>
<path fill-rule="evenodd" clip-rule="evenodd" d="M9.5927 16.131L9.35437 18.0952L9.65222 17.8571H12.7505L13.108 18.0952L12.8696 16.131L12.393 15.8333L10.0097 15.8929L9.5927 16.131Z" fill="#393939"/>
<path fill-rule="evenodd" clip-rule="evenodd" d="M7.98395 2.85715L9.4139 6.19048L10.0694 15.8929H12.393L13.108 6.19048L14.4188 2.85715H7.98395Z" fill="#F89C35"/>
<path fill-rule="evenodd" clip-rule="evenodd" d="M1.72791 10.1786L0.0596313 15L4.23034 14.7619H6.91146V12.6786L6.79229 8.39291L6.19648 8.8691L1.72791 10.1786Z" fill="#F89D35"/>
<path fill-rule="evenodd" clip-rule="evenodd" d="M4.88568 10.7143L9.77137 10.8333L9.23519 13.3333L6.91145 12.7381L4.88568 10.7143Z" fill="#D87C30"/>
<path fill-rule="evenodd" clip-rule="evenodd" d="M4.88568 10.7739L6.91145 12.6786V14.5834L4.88568 10.7739Z" fill="#EA8D3A"/>
<path fill-rule="evenodd" clip-rule="evenodd" d="M6.91144 12.7381L9.2947 13.3333L10.0693 15.8929L9.53303 16.1905L6.91144 14.6429V12.7381Z" fill="#F89D35"/>
<path fill-rule="evenodd" clip-rule="evenodd" d="M6.91147 14.6429L6.43481 18.3333L9.59269 16.131L6.91147 14.6429Z" fill="#EB8F35"/>
<path fill-rule="evenodd" clip-rule="evenodd" d="M9.77135 10.8333L10.0693 15.8929L9.17554 13.3036L9.77135 10.8333Z" fill="#EA8E3A"/>
<path fill-rule="evenodd" clip-rule="evenodd" d="M4.17072 14.7024L6.91147 14.6429L6.43481 18.3333L4.17072 14.7024Z" fill="#D87C30"/>
<path fill-rule="evenodd" clip-rule="evenodd" d="M1.37043 19.9405L6.4348 18.3333L4.1707 14.7024L0.0596313 15L1.37043 19.9405Z" fill="#EB8F35"/>
<path fill-rule="evenodd" clip-rule="evenodd" d="M9.41388 6.19048L6.85193 8.33333L4.88568 10.7143L9.77137 10.8929L9.41388 6.19048Z" fill="#E8821E"/>
<path fill-rule="evenodd" clip-rule="evenodd" d="M6.43481 18.3333L9.59269 16.131L9.35436 18.0358V19.1072L7.20943 18.6905L6.43481 18.3333Z" fill="#DFCEC3"/>
<path fill-rule="evenodd" clip-rule="evenodd" d="M15.9678 18.3333L12.8696 16.131L13.1079 18.0358V19.1072L15.2529 18.6905L15.9678 18.3333Z" fill="#DFCEC3"/>
<path fill-rule="evenodd" clip-rule="evenodd" d="M8.46058 11.9048L9.11603 13.2739L6.79229 12.6786L8.46058 11.9048Z" fill="#393939"/>
<path fill-rule="evenodd" clip-rule="evenodd" d="M1.31079 0.0595779L9.41388 6.19048L8.04356 2.85714L1.31079 0.0595779Z" fill="#E88F35"/>
<path fill-rule="evenodd" clip-rule="evenodd" d="M1.31081 0.0595245L0.238342 3.33333L0.834158 6.90476L0.417087 7.14286L1.0129 7.67857L0.53625 8.09524L1.19165 8.69048L0.774576 9.04762L1.72788 10.2381L6.1965 8.86905C8.38115 7.12302 9.45362 6.23016 9.4139 6.19048C9.37418 6.15079 6.67315 4.10714 1.31081 0.0595245Z" fill="#8E5A30"/>
<path fill-rule="evenodd" clip-rule="evenodd" d="M20.6747 10.1786L22.343 15L18.1723 14.7619H15.4912V12.6786L15.6104 8.39291L16.2062 8.8691L20.6747 10.1786Z" fill="#F89D35"/>
<path fill-rule="evenodd" clip-rule="evenodd" d="M17.517 10.7143L12.6313 10.8333L13.1675 13.3333L15.4912 12.7381L17.517 10.7143Z" fill="#D87C30"/>
<path fill-rule="evenodd" clip-rule="evenodd" d="M17.517 10.7739L15.4912 12.6786V14.5834L17.517 10.7739Z" fill="#EA8D3A"/>
<path fill-rule="evenodd" clip-rule="evenodd" d="M15.4912 12.7381L13.1079 13.3333L12.3333 15.8929L12.8696 16.1905L15.4912 14.6429V12.7381Z" fill="#F89D35"/>
<path fill-rule="evenodd" clip-rule="evenodd" d="M15.4912 14.6429L15.9678 18.3333L12.8696 16.1905L15.4912 14.6429Z" fill="#EB8F35"/>
<path fill-rule="evenodd" clip-rule="evenodd" d="M12.6313 10.8333L12.3333 15.8929L13.2271 13.3036L12.6313 10.8333Z" fill="#EA8E3A"/>
<path fill-rule="evenodd" clip-rule="evenodd" d="M18.2319 14.7024L15.4912 14.6429L15.9678 18.3333L18.2319 14.7024Z" fill="#D87C30"/>
<path fill-rule="evenodd" clip-rule="evenodd" d="M21.0322 19.9405L15.9678 18.3333L18.2319 14.7024L22.343 15L21.0322 19.9405Z" fill="#EB8F35"/>
<path fill-rule="evenodd" clip-rule="evenodd" d="M12.9888 6.19048L15.5507 8.33333L17.517 10.7143L12.6313 10.8929L12.9888 6.19048Z" fill="#E8821E"/>
<path fill-rule="evenodd" clip-rule="evenodd" d="M13.9421 11.9048L13.2866 13.2739L15.6104 12.6786L13.9421 11.9048Z" fill="#393939"/>
<path fill-rule="evenodd" clip-rule="evenodd" d="M21.0919 0.0595779L12.9888 6.19048L14.3591 2.85714L21.0919 0.0595779Z" fill="#E88F35"/>
<path fill-rule="evenodd" clip-rule="evenodd" d="M21.0918 0.0595245L22.1643 3.33333L21.5685 6.90476L21.9856 7.14286L21.3897 7.67857L21.8664 8.09524L21.211 8.69048L21.6281 9.04762L20.6748 10.2381L16.2062 8.86905C14.0215 7.12302 12.949 6.23016 12.9887 6.19048C13.0285 6.15079 15.7295 4.10714 21.0918 0.0595245Z" fill="#8E5A30"/>
</g>
<defs>
<clipPath id="clip0_2_1641">
<rect width="22.4556" height="20" fill="white"/>
</clipPath>
</defs>
</svg>
